<svg id="icon-cartao-saraiva" viewBox="0 0 256 256" width="100%" height="100%"><title>Artboard 22</title><path d="M214.72 220.51a3.32 3.32 0 0 1 0-6.63 26.85 26.85 0 0 0 26.82-26.82 3.32 3.32 0 1 1 6.63 0 33.49 33.49 0 0 1-33.45 33.45zM41.73 220.51a33.49 33.49 0 0 1-33.45-33.44 3.32 3.32 0 1 1 6.63 0 26.84 26.84 0 0 0 26.82 26.82 3.32 3.32 0 0 1 0 6.63zM11.6 80.57a3.31 3.31 0 0 1-3.32-3.32 33.49 33.49 0 0 1 33.45-33.46 3.32 3.32 0 0 1 0 6.63 26.85 26.85 0 0 0-26.82 26.83 3.31 3.31 0 0 1-3.31 3.32zM244.85 80.57a3.31 3.31 0 0 1-3.32-3.32 26.86 26.86 0 0 0-26.82-26.83 3.32 3.32 0 0 1 0-6.63 33.49 33.49 0 0 1 33.46 33.46 3.31 3.31 0 0 1-3.32 3.32z"></path><path d="M244.85 190.38a3.31 3.31 0 0 1-3.32-3.32V77.25a3.32 3.32 0 1 1 6.63 0v109.82a3.31 3.31 0 0 1-3.31 3.31zM214.72 220.51h-173a3.32 3.32 0 0 1 0-6.63h173a3.32 3.32 0 0 1 0 6.63zM11.6 190.38a3.32 3.32 0 0 1-3.32-3.32V77.25a3.32 3.32 0 1 1 6.63 0v109.82a3.31 3.31 0 0 1-3.31 3.31zM214.72 50.42h-173a3.32 3.32 0 0 1 0-6.63h173a3.32 3.32 0 0 1 0 6.63z"></path><path d="M244.85 91.15H11.6a3.32 3.32 0 0 1 0-6.63h233.25a3.32 3.32 0 0 1 0 6.63zM244.85 118.56H11.6a3.32 3.32 0 0 1 0-6.63h233.25a3.32 3.32 0 0 1 0 6.63zM69.86 135.47H32.17a3.32 3.32 0 0 1 0-6.63h37.69a3.32 3.32 0 1 1 0 6.63z"></path><path fill="#1d1d1b" d="M215.82 136.85l-44.66 8.6 8.59 44 44.66-8.57-8.59-44.03z"></path><g clip-path="url(#a)"><path d="M126.34 155.61l6.34 33.45c15.63-11.2 30.12-13.19 37-8.05l-6.79-33.74c-4.52-4.42-20.67-4.93-36.57 8.34m-4.79-1.69c15.71-14.74 39.37-18.55 45.48-8l8.72 44.73c-8.23-10.21-24.2-11.26-45.91 6.23z" fill="#fff"></path></g></svg>